<svg viewBox="0 0 120 120" fill="none" xmlns="http://www.w3.org/2000/svg">
  <!-- Buff Armored Crab - favicon -->
  <!-- Legs left -->
  <path d="M32 68 L16 60 L8 64" stroke="url(#lg)" stroke-width="3.5" stroke-linecap="round" fill="none"/>
  <path d="M30 76 L12 72 L4 78" stroke="url(#lg)" stroke-width="3.5" stroke-linecap="round" fill="none"/>
  <path d="M30 84 L12 86 L4 92" stroke="url(#lg)" stroke-width="3.5" stroke-linecap="round" fill="none"/>
  <path d="M34 90 L18 98 L12 106" stroke="url(#lg)" stroke-width="3.5" stroke-linecap="round" fill="none"/>
  <!-- Legs right -->
  <path d="M88 68 L104 60 L112 64" stroke="url(#lg)" stroke-width="3.5" stroke-linecap="round" fill="none"/>
  <path d="M90 76 L108 72 L116 78" stroke="url(#lg)" stroke-width="3.5" stroke-linecap="round" fill="none"/>
  <path d="M90 84 L108 86 L116 92" stroke="url(#lg)" stroke-width="3.5" stroke-linecap="round" fill="none"/>
  <path d="M86 90 L102 98 L108 106" stroke="url(#lg)" stroke-width="3.5" stroke-linecap="round" fill="none"/>
  <!-- Main shell -->
  <ellipse cx="60" cy="72" rx="32" ry="24" fill="url(#lg)"/>
  <!-- Armor plate lines -->
  <path d="M36 62 Q60 54 84 62" stroke="rgba(255,255,255,0.15)" stroke-width="1.5" fill="none"/>
  <path d="M32 72 Q60 62 88 72" stroke="rgba(255,255,255,0.12)" stroke-width="1" fill="none"/>
  <path d="M34 82 Q60 74 86 82" stroke="rgba(255,255,255,0.10)" stroke-width="1" fill="none"/>
  <!-- Central ridge -->
  <line x1="60" y1="50" x2="60" y2="92" stroke="rgba(255,255,255,0.08)" stroke-width="1.5"/>
  <!-- Head plate -->
  <ellipse cx="60" cy="56" rx="20" ry="12" fill="url(#lg)"/>
  <path d="M46 54 Q60 48 74 54" stroke="rgba(255,255,255,0.18)" stroke-width="1" fill="none"/>
  <!-- Left claw arm -->
  <path d="M38 58 C28 48 18 42 12 44" stroke="url(#lg)" stroke-width="5.5" stroke-linecap="round" fill="none"/>
  <!-- Left claw -->
  <path d="M12 44 C4 38 -2 34 0 30 C2 26 8 28 12 32 L14 36" fill="url(#lg)"/>
  <path d="M12 44 C4 48 -2 52 2 56 C6 58 10 54 12 50 L14 46" fill="url(#lg)"/>
  <!-- Left claw ridges -->
  <path d="M10 34 L6 38" stroke="rgba(255,255,255,0.2)" stroke-width="0.8" fill="none"/>
  <path d="M8 36 L4 40" stroke="rgba(255,255,255,0.15)" stroke-width="0.8" fill="none"/>
  <path d="M8 48 L4 52" stroke="rgba(255,255,255,0.2)" stroke-width="0.8" fill="none"/>
  <!-- Right claw arm -->
  <path d="M82 58 C92 48 102 42 108 44" stroke="url(#lg)" stroke-width="5.5" stroke-linecap="round" fill="none"/>
  <!-- Right claw -->
  <path d="M108 44 C116 38 122 34 120 30 C118 26 112 28 108 32 L106 36" fill="url(#lg)"/>
  <path d="M108 44 C116 48 122 52 118 56 C114 58 110 54 108 50 L106 46" fill="url(#lg)"/>
  <!-- Right claw ridges -->
  <path d="M110 34 L114 38" stroke="rgba(255,255,255,0.2)" stroke-width="0.8" fill="none"/>
  <path d="M112 36 L116 40" stroke="rgba(255,255,255,0.15)" stroke-width="0.8" fill="none"/>
  <path d="M112 48 L116 52" stroke="rgba(255,255,255,0.2)" stroke-width="0.8" fill="none"/>
  <!-- Eyes -->
  <circle cx="50" cy="52" r="4" fill="#050810"/>
  <circle cx="70" cy="52" r="4" fill="#050810"/>
  <circle cx="51" cy="51" r="2" fill="#00e5cc"/>
  <circle cx="71" cy="51" r="2" fill="#00e5cc"/>
  <circle cx="51" cy="51" r="3.5" fill="none" stroke="#00e5cc" stroke-width="0.5" opacity="0.4"/>
  <circle cx="71" cy="51" r="3.5" fill="none" stroke="#00e5cc" stroke-width="0.5" opacity="0.4"/>
  <defs>
    <linearGradient id="lg" x1="0%" y1="0%" x2="100%" y2="100%">
      <stop offset="0%" stop-color="#4ade80"/>
      <stop offset="100%" stop-color="#166534"/>
    </linearGradient>
  </defs>
</svg>
